<svg xmlns="http://www.w3.org/2000/svg" xmlns:xlink="http://www.w3.org/1999/xlink" width="500" zoomAndPan="magnify" viewBox="0 0 375 374.999991" height="500" preserveAspectRatio="xMidYMid meet" version="1.2"><defs><clipPath id="d33a702bf1"><rect x="0" width="43" y="0" height="11"/></clipPath></defs><g id="ebd22d4a96"><g style="fill:#ffffff;fill-opacity:1;"><g transform="translate(49.43119, 205.874986)"><path style="stroke:none" d="M 22.4375 -26.5625 C 22.4375 -26.707031 22.53125 -26.78125 22.71875 -26.78125 C 22.863281 -26.78125 22.9375 -26.707031 22.9375 -26.5625 L 22.9375 -23.890625 C 22.9375 -23.691406 22.863281 -23.59375 22.71875 -23.59375 C 22.53125 -23.59375 22.4375 -23.691406 22.4375 -23.890625 C 22.4375 -24.609375 22.070312 -24.96875 21.34375 -24.96875 L 12.015625 -24.96875 C 11.867188 -24.96875 11.796875 -25.039062 11.796875 -25.1875 C 11.796875 -25.375 11.867188 -25.46875 12.015625 -25.46875 L 21.34375 -25.46875 C 22.070312 -25.46875 22.4375 -25.832031 22.4375 -26.5625 Z M 30.328125 -47.40625 C 30.328125 -48.03125 29.3125 -48.644531 27.28125 -49.25 C 25.257812 -49.851562 22.628906 -50.15625 19.390625 -50.15625 L 7.671875 -50.15625 L 7.671875 -0.21875 L 19.390625 -0.21875 C 22.628906 -0.21875 25.257812 -0.519531 27.28125 -1.125 C 29.3125 -1.726562 30.328125 -2.34375 30.328125 -2.96875 C 30.328125 -3.15625 30.398438 -3.25 30.546875 -3.25 C 30.734375 -3.25 30.828125 -3.15625 30.828125 -2.96875 L 30.828125 0 C 30.828125 0.144531 30.734375 0.21875 30.546875 0.21875 L 7.453125 0.21875 C 7.398438 0.21875 7.375 0.21875 7.375 0.21875 L 3.765625 0.21875 C 3.617188 0.21875 3.546875 0.144531 3.546875 0 C 3.546875 -0.144531 3.617188 -0.21875 3.765625 -0.21875 C 4.535156 -0.21875 4.921875 -0.601562 4.921875 -1.375 L 4.921875 -49.0625 C 4.921875 -49.789062 4.535156 -50.15625 3.765625 -50.15625 C 3.617188 -50.15625 3.546875 -50.226562 3.546875 -50.375 C 3.546875 -50.5625 3.617188 -50.65625 3.765625 -50.65625 L 7.375 -50.65625 C 7.375 -50.65625 7.382812 -50.65625 7.40625 -50.65625 C 7.4375 -50.65625 7.453125 -50.65625 7.453125 -50.65625 L 30.546875 -50.65625 C 30.734375 -50.65625 30.828125 -50.5625 30.828125 -50.375 L 30.828125 -47.40625 C 30.828125 -47.257812 30.734375 -47.1875 30.546875 -47.1875 C 30.398438 -47.1875 30.328125 -47.257812 30.328125 -47.40625 Z M 30.328125 -47.40625 "/></g></g><g style="fill:#ffffff;fill-opacity:1;"><g transform="translate(81.348532, 205.874986)"><path style="stroke:none" d="M 8.75 -50.65625 C 8.945312 -50.65625 9.046875 -50.5625 9.046875 -50.375 C 9.046875 -50.226562 8.945312 -50.15625 8.75 -50.15625 C 8.03125 -50.15625 7.671875 -49.789062 7.671875 -49.0625 L 7.671875 0 C 7.671875 0.144531 7.597656 0.21875 7.453125 0.21875 L 3.765625 0.21875 C 3.617188 0.21875 3.546875 0.144531 3.546875 0 C 3.546875 -0.144531 3.617188 -0.21875 3.765625 -0.21875 C 4.535156 -0.21875 4.921875 -0.601562 4.921875 -1.375 L 4.921875 -49.0625 C 4.921875 -49.789062 4.535156 -50.15625 3.765625 -50.15625 C 3.617188 -50.15625 3.546875 -50.226562 3.546875 -50.375 C 3.546875 -50.5625 3.617188 -50.65625 3.765625 -50.65625 Z M 30.546875 -3.25 C 30.734375 -3.25 30.828125 -3.15625 30.828125 -2.96875 L 30.828125 0 C 30.828125 0.144531 30.734375 0.21875 30.546875 0.21875 L 19.390625 0.21875 C 19.390625 0.21875 19.023438 0.21875 18.296875 0.21875 C 17.578125 0.21875 16.734375 0.21875 15.765625 0.21875 C 14.804688 0.21875 13.953125 0.21875 13.203125 0.21875 C 12.460938 0.21875 12.09375 0.21875 12.09375 0.21875 C 11.945312 0.21875 11.875 0.144531 11.875 0 C 11.875 -0.144531 11.945312 -0.21875 12.09375 -0.21875 L 19.390625 -0.21875 C 22.628906 -0.21875 25.257812 -0.519531 27.28125 -1.125 C 29.3125 -1.726562 30.328125 -2.34375 30.328125 -2.96875 C 30.328125 -3.15625 30.398438 -3.25 30.546875 -3.25 Z M 30.546875 -3.25 "/></g></g><g style="fill:#ffffff;fill-opacity:1;"><g transform="translate(112.252625, 205.874986)"><path style="stroke:none" d="M 8.75 -50.65625 C 8.945312 -50.65625 9.046875 -50.5625 9.046875 -50.375 C 9.046875 -50.226562 8.945312 -50.15625 8.75 -50.15625 C 8.03125 -50.15625 7.671875 -49.789062 7.671875 -49.0625 L 7.671875 0 C 7.671875 0.144531 7.597656 0.21875 7.453125 0.21875 L 3.765625 0.21875 C 3.617188 0.21875 3.546875 0.144531 3.546875 0 C 3.546875 -0.144531 3.617188 -0.21875 3.765625 -0.21875 C 4.535156 -0.21875 4.921875 -0.601562 4.921875 -1.375 L 4.921875 -49.0625 C 4.921875 -49.789062 4.535156 -50.15625 3.765625 -50.15625 C 3.617188 -50.15625 3.546875 -50.226562 3.546875 -50.375 C 3.546875 -50.5625 3.617188 -50.65625 3.765625 -50.65625 Z M 30.546875 -3.25 C 30.734375 -3.25 30.828125 -3.15625 30.828125 -2.96875 L 30.828125 0 C 30.828125 0.144531 30.734375 0.21875 30.546875 0.21875 L 19.390625 0.21875 C 19.390625 0.21875 19.023438 0.21875 18.296875 0.21875 C 17.578125 0.21875 16.734375 0.21875 15.765625 0.21875 C 14.804688 0.21875 13.953125 0.21875 13.203125 0.21875 C 12.460938 0.21875 12.09375 0.21875 12.09375 0.21875 C 11.945312 0.21875 11.875 0.144531 11.875 0 C 11.875 -0.144531 11.945312 -0.21875 12.09375 -0.21875 L 19.390625 -0.21875 C 22.628906 -0.21875 25.257812 -0.519531 27.28125 -1.125 C 29.3125 -1.726562 30.328125 -2.34375 30.328125 -2.96875 C 30.328125 -3.15625 30.398438 -3.25 30.546875 -3.25 Z M 30.546875 -3.25 "/></g></g><g style="fill:#ffffff;fill-opacity:1;"><g transform="translate(143.156718, 205.874986)"><path style="stroke:none" d="M 8.75 -0.21875 C 8.945312 -0.21875 9.046875 -0.144531 9.046875 0 C 9.046875 0.144531 8.945312 0.21875 8.75 0.21875 L 3.765625 0.21875 C 3.617188 0.21875 3.546875 0.144531 3.546875 0 C 3.546875 -0.144531 3.617188 -0.21875 3.765625 -0.21875 C 4.535156 -0.21875 4.921875 -0.601562 4.921875 -1.375 L 4.921875 -49.0625 C 4.921875 -49.789062 4.535156 -50.15625 3.765625 -50.15625 C 3.617188 -50.15625 3.546875 -50.226562 3.546875 -50.375 C 3.546875 -50.5625 3.617188 -50.65625 3.765625 -50.65625 L 8.75 -50.65625 C 8.945312 -50.65625 9.046875 -50.5625 9.046875 -50.375 C 9.046875 -50.226562 8.945312 -50.15625 8.75 -50.15625 C 8.03125 -50.15625 7.671875 -49.789062 7.671875 -49.0625 L 7.671875 -1.375 C 7.671875 -0.601562 8.03125 -0.21875 8.75 -0.21875 Z M 8.75 -0.21875 "/></g></g><g style="fill:#ffffff;fill-opacity:1;"><g transform="translate(155.749955, 205.874986)"><path style="stroke:none" d="M 22.359375 -22.796875 C 24.335938 -21.640625 25.878906 -20.109375 26.984375 -18.203125 C 28.097656 -16.296875 28.65625 -14.234375 28.65625 -12.015625 C 28.65625 -9.742188 28.097656 -7.679688 26.984375 -5.828125 C 25.878906 -3.972656 24.398438 -2.460938 22.546875 -1.296875 C 20.691406 -0.140625 18.601562 0.484375 16.28125 0.578125 C 15.988281 0.628906 15.773438 0.65625 15.640625 0.65625 C 12.492188 0.65625 9.71875 -0.332031 7.3125 -2.3125 C 7.164062 -2.457031 6.992188 -2.628906 6.796875 -2.828125 C 6.753906 -2.828125 6.71875 -2.847656 6.6875 -2.890625 C 6.664062 -2.941406 6.632812 -2.96875 6.59375 -2.96875 C 6.394531 -3.15625 6.195312 -3.375 6 -3.625 C 5.957031 -3.664062 5.910156 -3.710938 5.859375 -3.765625 C 5.671875 -3.953125 5.503906 -4.117188 5.359375 -4.265625 C 3.566406 -6.535156 2.671875 -9.117188 2.671875 -12.015625 C 2.671875 -12.160156 2.742188 -12.234375 2.890625 -12.234375 L 3.90625 -12.234375 C 4 -12.234375 4.070312 -12.207031 4.125 -12.15625 C 4.175781 -12.0625 4.203125 -11.988281 4.203125 -11.9375 L 4.125 -11.796875 C 4.03125 -11.265625 3.984375 -10.320312 3.984375 -8.96875 C 3.984375 -7.625 4.585938 -6.175781 5.796875 -4.625 C 5.929688 -4.382812 6.070312 -4.21875 6.21875 -4.125 C 6.269531 -4.03125 6.320312 -3.957031 6.375 -3.90625 C 6.519531 -3.71875 6.710938 -3.523438 6.953125 -3.328125 C 7.140625 -3.140625 7.351562 -2.945312 7.59375 -2.75 C 9.914062 -0.820312 12.597656 0.140625 15.640625 0.140625 C 15.773438 0.140625 15.96875 0.140625 16.21875 0.140625 C 18.1875 -0.00390625 19.976562 -0.570312 21.59375 -1.5625 C 23.21875 -2.550781 24.5 -3.835938 25.4375 -5.421875 C 26.375 -7.015625 26.84375 -8.78125 26.84375 -10.71875 C 26.84375 -12.644531 26.375 -14.425781 25.4375 -16.0625 C 24.5 -17.707031 23.160156 -19.035156 21.421875 -20.046875 L 9.1875 -27.5 C 7.3125 -28.65625 5.84375 -30.1875 4.78125 -32.09375 C 3.71875 -34 3.1875 -36.085938 3.1875 -38.359375 C 3.1875 -40.628906 3.703125 -42.691406 4.734375 -44.546875 C 5.773438 -46.398438 7.195312 -47.90625 9 -49.0625 C 10.8125 -50.226562 12.828125 -50.882812 15.046875 -51.03125 C 15.296875 -51.03125 15.492188 -51.03125 15.640625 -51.03125 C 15.828125 -51.03125 15.921875 -50.929688 15.921875 -50.734375 C 15.921875 -50.585938 15.828125 -50.515625 15.640625 -50.515625 C 15.535156 -50.515625 15.363281 -50.515625 15.125 -50.515625 C 13.195312 -50.421875 11.457031 -49.863281 9.90625 -48.84375 C 8.363281 -47.832031 7.144531 -46.519531 6.25 -44.90625 C 5.363281 -43.289062 4.921875 -41.519531 4.921875 -39.59375 C 4.921875 -37.65625 5.390625 -35.84375 6.328125 -34.15625 C 7.273438 -32.46875 8.539062 -31.144531 10.125 -30.1875 Z M 24.609375 -46.46875 C 24.222656 -46.851562 23.8125 -47.238281 23.375 -47.625 C 23.28125 -47.769531 23.28125 -47.890625 23.375 -47.984375 C 23.46875 -48.128906 23.585938 -48.128906 23.734375 -47.984375 C 24.171875 -47.597656 24.582031 -47.1875 24.96875 -46.75 C 27.09375 -44.382812 28.15625 -41.585938 28.15625 -38.359375 C 28.15625 -38.160156 28.082031 -38.0625 27.9375 -38.0625 L 26.921875 -38.0625 C 26.828125 -38.0625 26.753906 -38.085938 26.703125 -38.140625 C 26.660156 -38.234375 26.660156 -38.304688 26.703125 -38.359375 C 27.285156 -41.441406 26.585938 -44.144531 24.609375 -46.46875 Z M 24.609375 -46.46875 "/></g></g><g style="fill:#ffffff;fill-opacity:1;"><g transform="translate(187.160678, 205.874986)"><path style="stroke:none" d=""/></g></g><g style="fill:#ffffff;fill-opacity:1;"><g transform="translate(205.616289, 205.874986)"><path style="stroke:none" d="M 31.5625 -0.9375 C 31.695312 -0.789062 31.71875 -0.671875 31.625 -0.578125 C 31.53125 -0.523438 31.4375 -0.476562 31.34375 -0.4375 C 31.382812 -0.4375 31.382812 -0.4375 31.34375 -0.4375 C 31.34375 -0.4375 31.34375 -0.421875 31.34375 -0.390625 C 31.34375 -0.367188 31.34375 -0.359375 31.34375 -0.359375 C 30.8125 0.0234375 30.226562 0.21875 29.59375 0.21875 C 28.78125 0.21875 28.109375 -0.046875 27.578125 -0.578125 C 26.992188 -1.160156 26.703125 -1.835938 26.703125 -2.609375 L 26.703125 -12.59375 C 26.703125 -14.8125 26.28125 -16.820312 25.4375 -18.625 C 24.59375 -20.4375 23.445312 -21.910156 22 -23.046875 C 20.550781 -24.179688 18.9375 -24.820312 17.15625 -24.96875 C 16.957031 -24.96875 16.785156 -24.96875 16.640625 -24.96875 C 16.492188 -24.96875 16.421875 -25.039062 16.421875 -25.1875 C 16.421875 -25.375 16.492188 -25.46875 16.640625 -25.46875 L 17.953125 -25.46875 C 18.097656 -25.46875 18.289062 -25.46875 18.53125 -25.46875 C 20.21875 -25.570312 21.734375 -26.175781 23.078125 -27.28125 C 24.429688 -28.394531 25.484375 -29.851562 26.234375 -31.65625 C 26.984375 -33.46875 27.359375 -35.507812 27.359375 -37.78125 C 27.359375 -40.050781 26.984375 -42.101562 26.234375 -43.9375 C 25.484375 -45.769531 24.429688 -47.226562 23.078125 -48.3125 C 21.734375 -49.394531 20.21875 -50.007812 18.53125 -50.15625 C 18.289062 -50.15625 18.097656 -50.15625 17.953125 -50.15625 L 7.671875 -50.15625 L 7.671875 -1.375 C 7.671875 -0.601562 8.03125 -0.21875 8.75 -0.21875 C 8.945312 -0.21875 9.046875 -0.144531 9.046875 0 C 9.046875 0.144531 8.945312 0.21875 8.75 0.21875 L 3.765625 0.21875 C 3.617188 0.21875 3.546875 0.144531 3.546875 0 C 3.546875 -0.144531 3.617188 -0.21875 3.765625 -0.21875 C 4.535156 -0.21875 4.921875 -0.601562 4.921875 -1.375 L 4.921875 -49.0625 C 4.921875 -49.789062 4.535156 -50.15625 3.765625 -50.15625 C 3.617188 -50.15625 3.546875 -50.226562 3.546875 -50.375 C 3.546875 -50.5625 3.617188 -50.65625 3.765625 -50.65625 L 17.953125 -50.65625 C 18.097656 -50.65625 18.289062 -50.65625 18.53125 -50.65625 C 20.789062 -50.5625 22.863281 -49.921875 24.75 -48.734375 C 26.632812 -47.554688 28.117188 -46.015625 29.203125 -44.109375 C 30.285156 -42.203125 30.828125 -40.09375 30.828125 -37.78125 C 30.828125 -35.601562 30.34375 -33.609375 29.375 -31.796875 C 28.414062 -29.992188 27.09375 -28.488281 25.40625 -27.28125 C 23.71875 -26.070312 21.835938 -25.328125 19.765625 -25.046875 C 22.554688 -24.367188 24.878906 -22.882812 26.734375 -20.59375 C 28.597656 -18.300781 29.53125 -15.632812 29.53125 -12.59375 L 29.53125 -1.671875 C 29.53125 -1.378906 29.625 -1.132812 29.8125 -0.9375 C 30.195312 -0.550781 30.609375 -0.503906 31.046875 -0.796875 L 31.125 -0.875 C 31.164062 -0.875 31.210938 -0.894531 31.265625 -0.9375 C 31.359375 -1.03125 31.457031 -1.03125 31.5625 -0.9375 Z M 31.5625 -0.9375 "/></g></g><g style="fill:#ffffff;fill-opacity:1;"><g transform="translate(239.994384, 205.874986)"><path style="stroke:none" d="M 22.578125 -51.03125 C 25.179688 -50.925781 27.628906 -50.1875 29.921875 -48.8125 C 32.210938 -47.4375 34.238281 -45.566406 36 -43.203125 C 37.757812 -40.835938 39.125 -38.109375 40.09375 -35.015625 C 41.0625 -31.929688 41.546875 -28.65625 41.546875 -25.1875 C 41.546875 -21.707031 41.0625 -18.425781 40.09375 -15.34375 C 39.125 -12.257812 37.757812 -9.535156 36 -7.171875 C 34.238281 -4.804688 32.210938 -2.9375 29.921875 -1.5625 C 27.628906 -0.1875 25.179688 0.523438 22.578125 0.578125 C 22.535156 0.578125 22.515625 0.578125 22.515625 0.578125 C 22.410156 0.628906 22.265625 0.65625 22.078125 0.65625 C 21.878906 0.65625 21.734375 0.628906 21.640625 0.578125 C 19.035156 0.523438 16.570312 -0.1875 14.25 -1.5625 C 11.9375 -2.9375 9.910156 -4.804688 8.171875 -7.171875 C 6.441406 -9.535156 5.082031 -12.257812 4.09375 -15.34375 C 3.101562 -18.425781 2.609375 -21.707031 2.609375 -25.1875 C 2.609375 -28.65625 3.101562 -31.929688 4.09375 -35.015625 C 5.082031 -38.109375 6.441406 -40.835938 8.171875 -43.203125 C 9.910156 -45.566406 11.9375 -47.4375 14.25 -48.8125 C 16.570312 -50.1875 19.035156 -50.925781 21.640625 -51.03125 C 21.929688 -51.03125 22.222656 -51.03125 22.515625 -51.03125 C 22.515625 -51.03125 22.523438 -51.03125 22.546875 -51.03125 C 22.566406 -51.03125 22.578125 -51.03125 22.578125 -51.03125 Z M 22.515625 0.140625 C 24.828125 0.046875 26.972656 -0.707031 28.953125 -2.125 C 30.929688 -3.550781 32.628906 -5.492188 34.046875 -7.953125 C 35.472656 -10.421875 36.523438 -13.269531 37.203125 -16.5 C 37.828125 -19.25 38.140625 -22.144531 38.140625 -25.1875 C 38.140625 -29.863281 37.453125 -34.09375 36.078125 -37.875 C 34.703125 -41.664062 32.84375 -44.695312 30.5 -46.96875 C 28.164062 -49.238281 25.503906 -50.421875 22.515625 -50.515625 C 22.410156 -50.515625 22.265625 -50.515625 22.078125 -50.515625 C 21.878906 -50.515625 21.734375 -50.515625 21.640625 -50.515625 C 19.222656 -50.421875 17 -49.613281 14.96875 -48.09375 C 12.945312 -46.570312 11.222656 -44.484375 9.796875 -41.828125 C 8.378906 -39.179688 7.359375 -36.144531 6.734375 -32.71875 C 6.242188 -30.300781 6 -27.789062 6 -25.1875 C 6 -24.320312 6.023438 -23.453125 6.078125 -22.578125 C 6.128906 -22.140625 6.175781 -21.726562 6.21875 -21.34375 C 6.269531 -20.476562 6.367188 -19.660156 6.515625 -18.890625 C 6.703125 -17.679688 6.941406 -16.5 7.234375 -15.34375 C 7.722656 -13.457031 8.328125 -11.71875 9.046875 -10.125 C 9.335938 -9.457031 9.648438 -8.832031 9.984375 -8.25 C 10.328125 -7.664062 10.691406 -7.113281 11.078125 -6.59375 C 12.566406 -4.363281 14.28125 -2.671875 16.21875 -1.515625 C 16.695312 -1.222656 17.175781 -0.984375 17.65625 -0.796875 C 18.957031 -0.210938 20.285156 0.0976562 21.640625 0.140625 C 21.734375 0.140625 21.878906 0.140625 22.078125 0.140625 C 22.316406 0.140625 22.460938 0.140625 22.515625 0.140625 Z M 22.515625 0.140625 "/></g></g><g style="fill:#ffffff;fill-opacity:1;"><g transform="translate(284.215462, 205.874986)"><path style="stroke:none" d="M 5.140625 -49.0625 L 16.359375 -4.421875 C 16.359375 -4.367188 16.359375 -4.316406 16.359375 -4.265625 L 15.203125 0.4375 C 15.203125 0.34375 15.203125 0.34375 15.203125 0.4375 C 15.203125 0.476562 15.175781 0.523438 15.125 0.578125 C 15.070312 0.578125 15.046875 0.578125 15.046875 0.578125 C 15.003906 0.628906 14.984375 0.65625 14.984375 0.65625 C 14.929688 0.65625 14.882812 0.628906 14.84375 0.578125 C 14.789062 0.523438 14.738281 0.476562 14.6875 0.4375 L 2.3125 -49 C 2.125 -49.769531 1.644531 -50.15625 0.875 -50.15625 C 0.726562 -50.15625 0.65625 -50.226562 0.65625 -50.375 C 0.65625 -50.5625 0.726562 -50.65625 0.875 -50.65625 L 4.5625 -50.65625 C 4.5625 -50.65625 4.570312 -50.65625 4.59375 -50.65625 C 4.613281 -50.65625 4.625 -50.65625 4.625 -50.65625 L 5.9375 -50.65625 C 6.082031 -50.65625 6.15625 -50.5625 6.15625 -50.375 C 6.15625 -50.226562 6.082031 -50.15625 5.9375 -50.15625 C 5.644531 -50.15625 5.425781 -50.054688 5.28125 -49.859375 C 5.132812 -49.671875 5.085938 -49.40625 5.140625 -49.0625 Z M 40.390625 -50.65625 C 40.578125 -50.65625 40.671875 -50.5625 40.671875 -50.375 C 40.671875 -50.226562 40.578125 -50.15625 40.390625 -50.15625 C 39.617188 -50.15625 39.132812 -49.769531 38.9375 -49 L 27.71875 -4.265625 L 26.5625 0.4375 C 26.5625 0.34375 26.5625 0.34375 26.5625 0.4375 C 26.5625 0.476562 26.535156 0.523438 26.484375 0.578125 C 26.441406 0.578125 26.421875 0.578125 26.421875 0.578125 C 26.367188 0.628906 26.34375 0.65625 26.34375 0.65625 C 26.289062 0.65625 26.265625 0.628906 26.265625 0.578125 C 26.222656 0.578125 26.203125 0.578125 26.203125 0.578125 C 26.148438 0.523438 26.125 0.476562 26.125 0.4375 C 26.125 0.53125 26.101562 0.53125 26.0625 0.4375 L 20.625 -21.28125 L 18.171875 -11.359375 C 18.117188 -11.210938 18.019531 -11.140625 17.875 -11.140625 C 17.6875 -11.191406 17.613281 -11.289062 17.65625 -11.4375 L 20.40625 -22.296875 L 13.671875 -49 C 13.484375 -49.769531 13.003906 -50.15625 12.234375 -50.15625 C 12.085938 -50.15625 12.015625 -50.226562 12.015625 -50.375 C 12.015625 -50.5625 12.085938 -50.65625 12.234375 -50.65625 L 17.296875 -50.65625 C 17.492188 -50.65625 17.59375 -50.5625 17.59375 -50.375 C 17.59375 -50.226562 17.492188 -50.15625 17.296875 -50.15625 C 17.003906 -50.15625 16.785156 -50.054688 16.640625 -49.859375 C 16.492188 -49.671875 16.445312 -49.40625 16.5 -49.0625 L 21.859375 -28.015625 L 27.0625 -49.0625 C 27.164062 -49.40625 27.144531 -49.671875 27 -49.859375 C 26.851562 -50.054688 26.632812 -50.15625 26.34375 -50.15625 C 26.15625 -50.15625 26.0625 -50.226562 26.0625 -50.375 C 26.0625 -50.5625 26.15625 -50.65625 26.34375 -50.65625 L 29.015625 -50.65625 C 29.160156 -50.65625 29.234375 -50.5625 29.234375 -50.375 C 29.234375 -50.226562 29.160156 -50.15625 29.015625 -50.15625 C 28.242188 -50.15625 27.765625 -49.769531 27.578125 -49 L 22.078125 -27 L 27.5 -5.359375 L 38.5 -49.0625 C 38.550781 -49.40625 38.503906 -49.671875 38.359375 -49.859375 C 38.210938 -50.054688 37.992188 -50.15625 37.703125 -50.15625 C 37.554688 -50.15625 37.484375 -50.226562 37.484375 -50.375 C 37.484375 -50.5625 37.554688 -50.65625 37.703125 -50.65625 Z M 40.390625 -50.65625 "/></g></g><path style="fill:none;stroke-width:1;stroke-linecap:butt;stroke-linejoin:miter;stroke:#ffffff;stroke-opacity:1;stroke-miterlimit:4;" d="M -0.000646208 0.500016 L 169.311865 0.500016 " transform="matrix(0.75,0,0,0.75,79.098141,180.749988)"/><path style="fill:none;stroke-width:1;stroke-linecap:butt;stroke-linejoin:miter;stroke:#ffffff;stroke-opacity:1;stroke-miterlimit:4;" d="M 0.000831857 0.49854 L 114.896673 0.49854 " transform="matrix(0.75,-0.000000000000000372,0.000000000000000372,0.75,192.52672,213.712032)"/><g transform="matrix(1,0,0,1,210,218)"><g clip-path="url(#d33a702bf1)"><g style="fill:#ffffff;fill-opacity:1;"><g transform="translate(1.17509, 8.769414)"><path style="stroke:none" d="M 4.578125 0 L 0.625 0 L 0.625 -6.109375 L 4.578125 -6.109375 L 4.578125 -5.4375 L 1.375 -5.4375 L 1.375 -3.390625 L 4.203125 -3.390625 L 4.203125 -2.734375 L 1.375 -2.734375 L 1.375 -0.65625 L 4.578125 -0.65625 Z M 4.578125 0 "/></g></g><g style="fill:#ffffff;fill-opacity:1;"><g transform="translate(5.711145, 8.769414)"><path style="stroke:none" d="M 2.84375 0.078125 C 2.4375 0.078125 2.054688 0.015625 1.703125 -0.109375 C 1.347656 -0.242188 1.046875 -0.453125 0.796875 -0.734375 C 0.554688 -1.023438 0.40625 -1.394531 0.34375 -1.84375 L 1.078125 -1.84375 C 1.140625 -1.519531 1.265625 -1.265625 1.453125 -1.078125 C 1.640625 -0.898438 1.859375 -0.769531 2.109375 -0.6875 C 2.367188 -0.613281 2.625 -0.578125 2.875 -0.578125 C 3.300781 -0.578125 3.632812 -0.664062 3.875 -0.84375 C 4.113281 -1.019531 4.234375 -1.289062 4.234375 -1.65625 C 4.234375 -1.875 4.1875 -2.050781 4.09375 -2.1875 C 4 -2.332031 3.875 -2.445312 3.71875 -2.53125 C 3.5625 -2.613281 3.378906 -2.679688 3.171875 -2.734375 C 2.972656 -2.785156 2.765625 -2.835938 2.546875 -2.890625 C 2.304688 -2.929688 2.070312 -2.984375 1.84375 -3.046875 C 1.613281 -3.117188 1.398438 -3.207031 1.203125 -3.3125 C 1.015625 -3.425781 0.863281 -3.578125 0.75 -3.765625 C 0.632812 -3.960938 0.578125 -4.207031 0.578125 -4.5 C 0.578125 -4.851562 0.660156 -5.15625 0.828125 -5.40625 C 1.003906 -5.65625 1.238281 -5.847656 1.53125 -5.984375 C 1.832031 -6.117188 2.179688 -6.1875 2.578125 -6.1875 C 2.929688 -6.1875 3.265625 -6.125 3.578125 -6 C 3.890625 -5.882812 4.15625 -5.695312 4.375 -5.4375 C 4.59375 -5.1875 4.734375 -4.847656 4.796875 -4.421875 L 4.09375 -4.421875 C 4.03125 -4.703125 3.921875 -4.921875 3.765625 -5.078125 C 3.609375 -5.234375 3.425781 -5.347656 3.21875 -5.421875 C 3.007812 -5.492188 2.796875 -5.53125 2.578125 -5.53125 C 2.160156 -5.53125 1.84375 -5.441406 1.625 -5.265625 C 1.414062 -5.097656 1.3125 -4.863281 1.3125 -4.5625 C 1.3125 -4.320312 1.382812 -4.132812 1.53125 -4 C 1.6875 -3.863281 1.878906 -3.757812 2.109375 -3.6875 C 2.347656 -3.613281 2.601562 -3.546875 2.875 -3.484375 C 3.125 -3.429688 3.375 -3.367188 3.625 -3.296875 C 3.875 -3.234375 4.097656 -3.140625 4.296875 -3.015625 C 4.503906 -2.890625 4.664062 -2.722656 4.78125 -2.515625 C 4.90625 -2.304688 4.96875 -2.035156 4.96875 -1.703125 C 4.96875 -1.160156 4.785156 -0.726562 4.421875 -0.40625 C 4.066406 -0.0820312 3.539062 0.078125 2.84375 0.078125 Z M 2.84375 0.078125 "/></g></g><g style="fill:#ffffff;fill-opacity:1;"><g transform="translate(10.703195, 8.769414)"><path style="stroke:none" d="M 2.90625 0 L 2.171875 0 L 2.171875 -5.4375 L 0.109375 -5.4375 L 0.109375 -6.109375 L 4.984375 -6.109375 L 4.984375 -5.4375 L 2.90625 -5.4375 Z M 2.90625 0 "/></g></g><g style="fill:#ffffff;fill-opacity:1;"><g transform="translate(15.40725, 8.769414)"><path style="stroke:none" d="M 2.296875 0 L 0.625 0 L 0.625 -6.109375 L 2.3125 -6.109375 C 3.332031 -6.109375 4.109375 -5.835938 4.640625 -5.296875 C 5.179688 -4.765625 5.453125 -4.007812 5.453125 -3.03125 C 5.453125 -2.0625 5.179688 -1.3125 4.640625 -0.78125 C 4.097656 -0.257812 3.316406 0 2.296875 0 Z M 1.375 -5.4375 L 1.375 -0.65625 L 2.296875 -0.65625 C 2.617188 -0.65625 2.921875 -0.6875 3.203125 -0.75 C 3.492188 -0.820312 3.75 -0.945312 3.96875 -1.125 C 4.195312 -1.300781 4.378906 -1.539062 4.515625 -1.84375 C 4.648438 -2.15625 4.71875 -2.550781 4.71875 -3.03125 C 4.71875 -3.625 4.613281 -4.09375 4.40625 -4.4375 C 4.195312 -4.789062 3.910156 -5.046875 3.546875 -5.203125 C 3.191406 -5.359375 2.773438 -5.4375 2.296875 -5.4375 Z M 1.375 -5.4375 "/></g></g><g style="fill:#ffffff;fill-opacity:1;"><g transform="translate(20.871306, 8.769414)"><path style="stroke:none" d=""/></g></g><g style="fill:#ffffff;fill-opacity:1;"><g transform="translate(22.719334, 8.769414)"><path style="stroke:none" d="M 4.734375 0 L 0.453125 0 L 0.453125 -0.65625 L 2.40625 -2.265625 C 2.800781 -2.597656 3.113281 -2.925781 3.34375 -3.25 C 3.582031 -3.570312 3.703125 -3.9375 3.703125 -4.34375 C 3.703125 -4.707031 3.609375 -4.992188 3.421875 -5.203125 C 3.234375 -5.410156 2.945312 -5.515625 2.5625 -5.515625 C 2.164062 -5.515625 1.851562 -5.394531 1.625 -5.15625 C 1.40625 -4.914062 1.28125 -4.550781 1.25 -4.0625 L 0.515625 -4.0625 C 0.523438 -4.488281 0.613281 -4.859375 0.78125 -5.171875 C 0.957031 -5.484375 1.191406 -5.726562 1.484375 -5.90625 C 1.785156 -6.082031 2.144531 -6.171875 2.5625 -6.171875 C 2.9375 -6.171875 3.257812 -6.097656 3.53125 -5.953125 C 3.8125 -5.804688 4.03125 -5.597656 4.1875 -5.328125 C 4.351562 -5.066406 4.4375 -4.757812 4.4375 -4.40625 C 4.4375 -4.050781 4.363281 -3.71875 4.21875 -3.40625 C 4.082031 -3.101562 3.894531 -2.820312 3.65625 -2.5625 C 3.414062 -2.300781 3.148438 -2.046875 2.859375 -1.796875 L 1.484375 -0.65625 L 4.734375 -0.65625 Z M 4.734375 0 "/></g></g><g style="fill:#ffffff;fill-opacity:1;"><g transform="translate(27.49539, 8.769414)"><path style="stroke:none" d="M 2.65625 0.078125 C 2.007812 0.078125 1.492188 -0.179688 1.109375 -0.703125 C 0.734375 -1.222656 0.546875 -2.007812 0.546875 -3.0625 C 0.546875 -4.113281 0.726562 -4.894531 1.09375 -5.40625 C 1.46875 -5.925781 1.976562 -6.1875 2.625 -6.1875 C 3.28125 -6.1875 3.796875 -5.925781 4.171875 -5.40625 C 4.546875 -4.882812 4.734375 -4.09375 4.734375 -3.03125 C 4.734375 -1.988281 4.546875 -1.207031 4.171875 -0.6875 C 3.804688 -0.175781 3.300781 0.078125 2.65625 0.078125 Z M 2.640625 -0.59375 C 3.054688 -0.59375 3.382812 -0.789062 3.625 -1.1875 C 3.875 -1.582031 4 -2.203125 4 -3.046875 C 4 -3.890625 3.875 -4.507812 3.625 -4.90625 C 3.375 -5.3125 3.035156 -5.515625 2.609375 -5.515625 C 2.191406 -5.515625 1.863281 -5.3125 1.625 -4.90625 C 1.394531 -4.507812 1.28125 -3.894531 1.28125 -3.0625 C 1.28125 -2.21875 1.398438 -1.59375 1.640625 -1.1875 C 1.890625 -0.789062 2.222656 -0.59375 2.640625 -0.59375 Z M 2.640625 -0.59375 "/></g></g><g style="fill:#ffffff;fill-opacity:1;"><g transform="translate(32.383446, 8.769414)"><path style="stroke:none" d="M 4.734375 0 L 0.453125 0 L 0.453125 -0.65625 L 2.40625 -2.265625 C 2.800781 -2.597656 3.113281 -2.925781 3.34375 -3.25 C 3.582031 -3.570312 3.703125 -3.9375 3.703125 -4.34375 C 3.703125 -4.707031 3.609375 -4.992188 3.421875 -5.203125 C 3.234375 -5.410156 2.945312 -5.515625 2.5625 -5.515625 C 2.164062 -5.515625 1.851562 -5.394531 1.625 -5.15625 C 1.40625 -4.914062 1.28125 -4.550781 1.25 -4.0625 L 0.515625 -4.0625 C 0.523438 -4.488281 0.613281 -4.859375 0.78125 -5.171875 C 0.957031 -5.484375 1.191406 -5.726562 1.484375 -5.90625 C 1.785156 -6.082031 2.144531 -6.171875 2.5625 -6.171875 C 2.9375 -6.171875 3.257812 -6.097656 3.53125 -5.953125 C 3.8125 -5.804688 4.03125 -5.597656 4.1875 -5.328125 C 4.351562 -5.066406 4.4375 -4.757812 4.4375 -4.40625 C 4.4375 -4.050781 4.363281 -3.71875 4.21875 -3.40625 C 4.082031 -3.101562 3.894531 -2.820312 3.65625 -2.5625 C 3.414062 -2.300781 3.148438 -2.046875 2.859375 -1.796875 L 1.484375 -0.65625 L 4.734375 -0.65625 Z M 4.734375 0 "/></g></g><g style="fill:#ffffff;fill-opacity:1;"><g transform="translate(37.159502, 8.769414)"><path style="stroke:none" d="M 2.59375 0.078125 C 2.21875 0.078125 1.882812 0 1.59375 -0.15625 C 1.300781 -0.3125 1.0625 -0.523438 0.875 -0.796875 C 0.695312 -1.066406 0.585938 -1.382812 0.546875 -1.75 L 1.296875 -1.75 C 1.347656 -1.375 1.5 -1.085938 1.75 -0.890625 C 2 -0.691406 2.296875 -0.59375 2.640625 -0.59375 C 2.929688 -0.59375 3.171875 -0.65625 3.359375 -0.78125 C 3.554688 -0.914062 3.707031 -1.097656 3.8125 -1.328125 C 3.914062 -1.554688 3.96875 -1.8125 3.96875 -2.09375 C 3.96875 -2.519531 3.847656 -2.859375 3.609375 -3.109375 C 3.367188 -3.359375 3.039062 -3.484375 2.625 -3.484375 C 2.363281 -3.484375 2.125 -3.414062 1.90625 -3.28125 C 1.695312 -3.144531 1.535156 -2.960938 1.421875 -2.734375 L 0.609375 -2.734375 L 1.21875 -6.109375 L 4.421875 -6.109375 L 4.421875 -5.4375 L 1.78125 -5.4375 L 1.453125 -3.578125 C 1.640625 -3.753906 1.84375 -3.890625 2.0625 -3.984375 C 2.289062 -4.085938 2.53125 -4.140625 2.78125 -4.140625 C 3.15625 -4.140625 3.488281 -4.050781 3.78125 -3.875 C 4.070312 -3.707031 4.300781 -3.472656 4.46875 -3.171875 C 4.632812 -2.867188 4.71875 -2.515625 4.71875 -2.109375 C 4.71875 -1.703125 4.625 -1.332031 4.4375 -1 C 4.257812 -0.664062 4.007812 -0.398438 3.6875 -0.203125 C 3.375 -0.015625 3.007812 0.078125 2.59375 0.078125 Z M 2.59375 0.078125 "/></g></g></g></g></g></svg>